Coordinates
version=1
nRows=13
nColumns=40
inDegrees=yes

Units are S.I. units (second, meters, Newtons, ...)
If the header above contains a line with 'inDegrees', this indicates whether rotational values are in degrees (yes) or radians (no).

endheader
time	pelvis_tilt	pelvis_list	pelvis_rotation	pelvis_tx	pelvis_ty	pelvis_tz	hip_flexion_r	hip_adduction_r	hip_rotation_r	knee_angle_r	knee_angle_r_beta	ankle_angle_r	subtalar_angle_r	mtp_angle_r	hip_flexion_l	hip_adduction_l	hip_rotation_l	knee_angle_l	knee_angle_l_beta	ankle_angle_l	subtalar_angle_l	mtp_angle_l	lumbar_extension	lumbar_bending	lumbar_rotation	arm_flex_r	arm_add_r	arm_rot_r	elbow_flex_r	pro_sup_r	wrist_flex_r	wrist_dev_r	arm_flex_l	arm_add_l	arm_rot_l	elbow_flex_l	pro_sup_l	wrist_flex_l	wrist_dev_l
      0.00000000	     -0.71757627	     -0.05246869	      2.50761281	     -0.20229891	      0.96163587	     -0.92672280	     -2.90678880	     -7.48326438	    -17.15591374	      2.76304499	      0.04822423	      2.72152343	      0.00000000	      0.00000000	     -1.82469467	     -6.93653217	     -5.01444984	      3.46338089	      0.06044740	      4.18039676	      0.00000000	      0.00000000	     -3.49422954	      0.98706506	     -3.99165346	    -15.68161869	    -39.34457515	     36.84179007	     83.15823447	     87.07803471	      0.00000000	      0.00000000	    -18.86327645	    -34.29318565	     29.56652939	     78.23205665	     87.21018412	      0.00000000	      0.00000000
      0.00500000	     -0.72386332	     -0.05649953	      2.45350759	     -0.20231223	      0.96162264	     -0.92664821	     -2.88714505	     -7.48332059	    -17.04094644	      2.76944356	      0.04833591	      2.76231664	      0.00000000	      0.00000000	     -1.80432293	     -6.94054664	     -5.11047837	      3.52927620	      0.06159749	      4.28266091	      0.00000000	      0.00000000	     -3.48882015	      0.98281705	     -3.94363171	    -15.68765262	    -39.33927714	     36.83168481	     83.14103713	     87.03547512	      0.00000000	      0.00000000	    -18.85722368	    -34.27267202	     29.56056152	     78.21527412	     87.28342691	      0.00000000	      0.00000000
      0.01000000	     -0.74076495	     -0.06180057	      2.47396012	     -0.20231619	      0.96158987	     -0.92668664	     -2.85039963	     -7.48666915	    -17.09835428	      2.82491427	      0.04930406	      2.73801568	      0.00000000	      0.00000000	     -1.80776082	     -6.94617704	     -4.94408849	      3.46076900	      0.06040181	      4.22917677	      0.00000000	      0.00000000	     -3.46975549	      0.98763221	     -4.04868389	    -15.53738302	    -39.42081126	     37.02055244	     83.19169437	     87.11499158	      0.00000000	      0.00000000	    -18.97028014	    -34.22977529	     29.44384161	     78.27784354	     87.21293679	      0.00000000	      0.00000000
      0.01500000	     -0.72063057	     -0.05769348	      2.40437739	     -0.20229220	      0.96162568	     -0.92655967	     -2.87333868	     -7.48707790	    -16.98259968	      2.79086600	      0.04870980	      2.76745504	      0.00000000	      0.00000000	     -1.82535473	     -6.94346947	     -5.13162048	      3.50061496	      0.06109726	      4.23304941	      0.00000000	      0.00000000	     -3.50589497	      0.97483355	     -3.96800053	    -15.60240222	    -39.35205306	     36.91972926	     83.14180174	     87.10169541	      0.00000000	      0.00000000	    -18.94488460	    -34.24097902	     29.43040804	     78.24322584	     87.21710815	      0.00000000	      0.00000000
      0.02000000	     -0.73877044	     -0.08108615	      2.39302084	     -0.20228525	      0.96159110	     -0.92654259	     -2.87144025	     -7.46248074	    -16.88535244	      2.74636511	      0.04793311	      2.73501781	      0.00000000	      0.00000000	     -1.79837783	     -6.97350051	     -5.11886880	      3.52335054	      0.06149407	      4.27379521	      0.00000000	      0.00000000	     -3.49110495	      0.99781364	     -4.00129871	    -15.56753484	    -39.38722063	     36.98455922	     83.18706268	     87.08646413	      0.00000000	      0.00000000	    -19.00544795	    -34.21087938	     29.35200647	     78.26445102	     87.21016870	      0.00000000	      0.00000000
      0.02500000	     -0.72407726	     -0.05387529	      2.39182259	     -0.20223967	      0.96161737	     -0.92652734	     -2.86297963	     -7.48874397	    -17.04886740	      2.79860275	      0.04884483	      2.74735938	      0.00000000	      0.00000000	     -1.85298166	     -6.93676030	     -5.09366152	      3.44644599	      0.06015183	      4.18990144	      0.00000000	      0.00000000	     -3.51409444	      0.96284088	     -3.95105059	    -15.71549746	    -39.30398461	     36.78884383	     83.17866523	     86.99951766	      0.00000000	      0.00000000	    -18.92352033	    -34.24644354	     29.45329910	     78.26151047	     87.19993697	      0.00000000	      0.00000000
      0.03000000	     -0.73747450	     -0.10179043	      2.33931262	     -0.20224368	      0.96159608	     -0.92642409	     -2.85388416	     -7.43591148	    -16.88432071	      2.74804362	      0.04796241	      2.71820399	      0.00000000	      0.00000000	     -1.83533730	     -6.99442726	     -5.16505574	      3.48231193	      0.06077781	      4.25859758	      0.00000000	      0.00000000	     -3.49697684	      1.00762354	     -3.92618217	    -15.64785965	    -39.35834533	     36.90335032	     83.20834259	     87.00151048	      0.00000000	      0.00000000	    -18.89984769	    -34.24815880	     29.50364918	     78.21778141	     87.18073553	      0.00000000	      0.00000000
      0.03500000	     -0.73130690	     -0.07927511	      2.30091546	     -0.20225454	      0.96162087	     -0.92638114	     -2.83973732	     -7.46279914	    -16.91823069	      2.77713228	      0.04847010	      2.71354149	      0.00000000	      0.00000000	     -1.80059375	     -6.96464127	     -5.33650516	      3.57835312	      0.06245404	      4.23157752	      0.00000000	      0.00000000	     -3.50969832	      0.97656453	     -3.93626801	    -15.63382863	    -39.35296782	     36.86805127	     83.22580214	     87.10888838	      0.00000000	      0.00000000	    -18.98535967	    -34.21027505	     29.37418342	     78.25119209	     87.23581977	      0.00000000	      0.00000000
      0.04000000	     -0.72628242	     -0.10528049	      2.34121742	     -0.20226879	      0.96161508	     -0.92639808	     -2.84366748	     -7.43512623	    -16.96087833	      2.79620946	      0.04880306	      2.74117936	      0.00000000	      0.00000000	     -1.82388862	     -7.00148407	     -5.14688577	      3.51668092	      0.06137766	      4.26600893	      0.00000000	      0.00000000	     -3.52343363	      1.00305348	     -3.95617254	    -15.68285713	    -39.34535232	     36.84132542	     83.24030350	     87.09714315	      0.00000000	      0.00000000	    -18.94065086	    -34.24302181	     29.43547873	     78.26551552	     87.22561866	      0.00000000	      0.00000000
      0.04500000	     -0.70792197	     -0.13340101	      2.31517318	     -0.20225863	      0.96163299	     -0.92633929	     -2.86154056	     -7.39782596	    -16.95346081	      2.78403592	      0.04859059	      2.73127680	      0.00000000	      0.00000000	     -1.84402747	     -7.04065197	     -5.19513172	      3.54868507	      0.06193624	      4.29664010	      0.00000000	      0.00000000	     -3.55263927	      1.03158530	     -3.98231787	    -15.63772754	    -39.36938429	     36.87711164	     83.27980068	     87.08381434	      0.00000000	      0.00000000	    -18.95745212	    -34.23532653	     29.41930841	     78.26792260	     87.19359976	      0.00000000	      0.00000000
      0.05000000	     -0.73687202	     -0.12377326	      2.26684488	     -0.20232447	      0.96160656	     -0.92626633	     -2.82404070	     -7.41086741	    -16.84438279	      2.75856748	      0.04814609	      2.69358355	      0.00000000	      0.00000000	     -1.81046525	     -7.02545882	     -5.28631354	      3.54066598	      0.06179628	      4.23114813	      0.00000000	      0.00000000	     -3.52556711	      1.01453832	     -3.90097151	    -15.71232134	    -39.36415107	     36.80664698	     83.30289813	     87.04633647	      0.00000000	      0.00000000	    -18.83950875	    -34.28389380	     29.59679780	     78.23634525	     87.24441071	      0.00000000	      0.00000000
      0.05500000	     -0.70979240	     -0.14053006	      2.28359775	     -0.20230549	      0.96162983	     -0.92627356	     -2.86897539	     -7.38280927	    -16.92369505	      2.73129854	      0.04767015	      2.68705930	      0.00000000	      0.00000000	     -1.80602383	     -7.05235002	     -5.27862387	      3.62691616	      0.06330163	      4.33587886	      0.00000000	      0.00000000	     -3.57545094	      1.03329529	     -3.89235583	    -15.84720484	    -39.30540398	     36.58037782	     83.32825069	     87.09131566	      0.00000000	      0.00000000	    -18.83570725	    -34.26896885	     29.56214181	     78.25140099	     87.21394668	      0.00000000	      0.00000000
      0.06000000	     -0.71768649	     -0.13031377	      2.23914494	     -0.20227697	      0.96162660	     -0.92620257	     -2.81824607	     -7.41386413	    -16.88348483	      2.82000022	      0.04921829	      2.74590781	      0.00000000	      0.00000000	     -1.83515232	     -7.03896588	     -5.28518720	      3.55691710	      0.06207991	      4.27779725	      0.00000000	      0.00000000	     -3.56650643	      1.01379795	     -3.90184409	    -15.79961788	    -39.32902767	     36.64049943	     83.34400450	     87.16641045	      0.00000000	      0.00000000	    -18.90419334	    -34.23930862	     29.48005996	     78.26456442	     87.26363043	      0.00000000	      0.00000000
